<?xml version="1.0" encoding="utf-8"?>
<!-- Generator: Adobe Illustrator 18.1.1, SVG Export Plug-In . SVG Version: 6.00 Build 0)  -->
<svg version="1.1" id="Layer_1" xmlns="http://www.w3.org/2000/svg" xmlns:xlink="http://www.w3.org/1999/xlink" x="0px" y="0px"
	 viewBox="0 0 160 600" enable-background="new 0 0 160 600" xml:space="preserve">
<g enable-background="new    ">
	<path fill="#FFFFFF" d="M16.7,220.1h7.8c5.9,0,10.7,4.6,10.7,10.6c0,5.9-4.9,10.6-10.7,10.6h-7.8V220.1z M22.2,236.6h1.2
		c3.3,0,6.1-1.8,6.1-5.9c0-3.8-2.5-5.9-6-5.9h-1.3C22.2,224.8,22.2,236.6,22.2,236.6z"/>
	<path fill="#FFFFFF" d="M52.4,234.9H41.7c0,2.1,1.1,3.2,3.2,3.2c1.1,0,1.9-0.4,2.4-1.3h4.9c-0.4,1.7-1.4,2.9-2.7,3.7
		s-2.9,1.2-4.6,1.2c-4.8,0-8.3-2.7-8.3-7.6c0-4.8,3.3-7.7,8-7.7c5,0,7.9,3.1,7.9,8v0.5L52.4,234.9L52.4,234.9z M47.7,231.9
		c-0.3-1.4-1.5-2.3-2.9-2.3c-1.5,0-2.7,0.8-3,2.3H47.7z"/>
	<path fill="#FFFFFF" d="M59.7,228.5L59.7,228.5c1-1.4,2.7-2.1,4.4-2.1c4.3,0,7.3,3.6,7.3,7.7c0,4.1-2.9,7.6-7.2,7.6
		c-1.7,0-3.4-0.6-4.5-1.8v8.5h-5.1v-21.5h5.1C59.7,226.9,59.7,228.5,59.7,228.5z M59.5,234c0,1.8,1.2,3.2,3.3,3.2
		c2.1,0,3.3-1.4,3.3-3.2s-1.2-3.2-3.3-3.2C60.7,230.8,59.5,232.3,59.5,234z"/>
	<path fill="#FFFFFF" d="M90.1,234c0,4.9-4,7.6-8.7,7.6c-4.6,0-8.7-2.7-8.7-7.6s4-7.7,8.7-7.7C86,226.4,90.1,229.1,90.1,234z
		 M78.1,234c0,1.8,1.2,3.2,3.3,3.2c2.1,0,3.3-1.4,3.3-3.2s-1.2-3.2-3.3-3.2C79.4,230.8,78.1,232.3,78.1,234z"/>
	<path fill="#FFFFFF" d="M101.9,230.5c-0.8-0.4-1.9-0.7-2.7-0.7c-0.6,0-1.6,0.3-1.6,1c0,1,1.6,1.1,2.3,1.3c2.4,0.5,4.2,1.6,4.2,4.3
		c0,3.8-3.4,5.3-6.8,5.3c-2,0-4.1-0.6-5.8-1.7l1.8-3.6c1,0.7,2.8,1.5,4,1.5c0.6,0,1.6-0.3,1.6-1.1c0-1.1-1.6-1.2-3.2-1.6
		c-1.6-0.4-3.2-1.2-3.2-3.8c0-3.5,3.2-5.1,6.3-5.1c1.6,0,3.2,0.3,4.7,0.9L101.9,230.5z"/>
	<path fill="#FFFFFF" d="M112.1,221.3c0,1.6-1.3,2.9-2.9,2.9s-2.9-1.3-2.9-2.9s1.3-2.9,2.9-2.9C110.8,218.5,112.1,219.8,112.1,221.3
		z M111.8,241.2h-5.1v-14.4h5.1V241.2z"/>
	<path fill="#FFFFFF" d="M120.8,241.2h-5.1V231H114v-4.2h1.7v-4.3h5.1v4.3h2.9v4.2h-2.9C120.8,231,120.8,241.2,120.8,241.2z"/>
	<path fill="#FFFFFF" d="M141,241.2h-5.1v-1.6h-0.1c-0.9,1.4-2.7,2.1-4.3,2.1c-4.3,0-7.3-3.6-7.3-7.7c0-4.1,2.9-7.6,7.2-7.6
		c1.7,0,3.4,0.6,4.5,1.9v-1.4h5.1L141,241.2L141,241.2z M129.5,234c0,1.8,1.2,3.2,3.3,3.2s3.3-1.4,3.3-3.2s-1.2-3.2-3.3-3.2
		S129.5,232.3,129.5,234z"/>
</g>
<g enable-background="new    ">
	<path fill="#FFFFFF" d="M69.3,274.8h-5.1v-10.2h-1.7v-4.2h1.7v-4.3h5.1v4.3h2.9v4.2h-2.9V274.8z"/>
	<path fill="#FFFFFF" d="M78.8,260.4v7.7c0,1.8,0.4,3.1,2.5,3.1s2.5-1.3,2.5-3.1v-7.7H89v8.7c0,4.7-3.3,6.2-7.6,6.2
		c-4.3,0-7.6-1.5-7.6-6.2v-8.7H78.8z"/>
	<path fill="#FFFFFF" d="M101.7,264.1c-0.8-0.4-1.9-0.7-2.7-0.7c-0.6,0-1.6,0.3-1.6,1c0,1,1.6,1.1,2.3,1.3c2.4,0.5,4.2,1.6,4.2,4.3
		c0,3.8-3.4,5.3-6.8,5.3c-2,0-4.1-0.6-5.8-1.7l1.8-3.6c1,0.7,2.8,1.5,4,1.5c0.6,0,1.6-0.3,1.6-1.1c0-1.1-1.6-1.2-3.2-1.6
		s-3.2-1.2-3.2-3.8c0-3.5,3.2-5.1,6.3-5.1c1.6,0,3.2,0.3,4.7,0.9L101.7,264.1z"/>
</g>
<g enable-background="new    ">
	<path fill="#FFFFFF" d="M36.6,298.7c-0.8-0.6-1.7-1-2.6-1c-2,0-3.5,1.5-3.5,3.5c0,2.1,1.5,3.5,3.6,3.5c0.9,0,1.9-0.4,2.5-1v4.3
		c-1.1,0.6-2.4,0.8-3.6,0.8c-4.3,0-7.8-3.2-7.8-7.5c0-4.6,3.5-7.8,8-7.8c1.2,0,2.4,0.3,3.4,0.8C36.6,294.3,36.6,298.7,36.6,298.7z"
		/>
	<path fill="#FFFFFF" d="M44.8,285.2v10.7h0.1c1.2-1.6,2.6-2.3,4.6-2.3c3.6,0,5.4,2.4,5.4,6v8.8h-5.1V301c0-1.7-0.3-3.4-2.3-3.4
		s-2.7,1.7-2.7,3.4v7.4h-5.1v-23.2L44.8,285.2L44.8,285.2z"/>
	<path fill="#FFFFFF" d="M73,302.1H62.3c0,2.1,1.1,3.2,3.2,3.2c1.1,0,1.9-0.4,2.4-1.3h4.9c-0.4,1.7-1.4,2.9-2.7,3.7
		c-1.3,0.8-2.9,1.2-4.6,1.2c-4.8,0-8.3-2.7-8.3-7.6c0-4.8,3.3-7.7,8-7.7c5,0,7.9,3.1,7.9,8v0.5L73,302.1L73,302.1z M68.3,299.1
		c-0.3-1.4-1.5-2.3-2.9-2.3c-1.5,0-2.7,0.8-3,2.3H68.3z"/>
	<path fill="#FFFFFF" d="M91.2,315.6h-5.1V307c-1.1,1.3-2.8,1.8-4.5,1.8c-4.3,0-7.2-3.5-7.2-7.6s3-7.7,7.3-7.7
		c1.7,0,3.4,0.7,4.3,2.1h0.1V294h5.1C91.2,294,91.2,315.6,91.2,315.6z M79.7,301.2c0,1.8,1.2,3.2,3.3,3.2c2.1,0,3.3-1.4,3.3-3.2
		c0-1.8-1.2-3.2-3.3-3.2C80.9,298,79.7,299.5,79.7,301.2z"/>
	<path fill="#FFFFFF" d="M99.4,294v7.7c0,1.8,0.4,3.1,2.5,3.1s2.5-1.3,2.5-3.1V294h5.1v8.7c0,4.7-3.3,6.2-7.6,6.2
		c-4.3,0-7.6-1.5-7.6-6.2V294H99.4z"/>
	<path fill="#FFFFFF" d="M127.6,302.1h-10.7c0,2.1,1.1,3.2,3.2,3.2c1.1,0,1.9-0.4,2.4-1.3h4.9c-0.4,1.7-1.4,2.9-2.7,3.7
		c-1.3,0.8-2.9,1.2-4.6,1.2c-4.8,0-8.3-2.7-8.3-7.6c0-4.8,3.3-7.7,8-7.7c5,0,7.9,3.1,7.9,8v0.5L127.6,302.1L127.6,302.1z
		 M122.9,299.1c-0.3-1.4-1.5-2.3-2.9-2.3c-1.5,0-2.7,0.8-3,2.3H122.9z"/>
	<path fill="#FFFFFF" d="M139.4,297.7c-0.8-0.4-1.9-0.7-2.7-0.7c-0.6,0-1.6,0.3-1.6,1c0,1,1.6,1.1,2.3,1.3c2.4,0.5,4.2,1.6,4.2,4.3
		c0,3.8-3.4,5.3-6.8,5.3c-2,0-4.1-0.6-5.8-1.7l1.8-3.6c1,0.7,2.8,1.5,4,1.5c0.6,0,1.6-0.3,1.6-1.1c0-1.1-1.6-1.2-3.2-1.6
		c-1.6-0.4-3.2-1.2-3.2-3.8c0-3.5,3.2-5.1,6.3-5.1c1.6,0,3.2,0.3,4.7,0.9L139.4,297.7z"/>
</g>
<g enable-background="new    ">
	<path fill="#FFFFFF" d="M33.6,340.4L33.6,340.4c-1,1.4-2.7,2.1-4.4,2.1c-4.3,0-7.3-3.6-7.3-7.7s2.9-7.6,7.2-7.6
		c1.7,0,3.4,0.6,4.5,1.9v-10.3h5.1V342h-5.1V340.4z M27.2,334.8c0,1.8,1.2,3.2,3.3,3.2s3.3-1.4,3.3-3.2c0-1.8-1.2-3.2-3.3-3.2
		C28.4,331.6,27.2,333.1,27.2,334.8z"/>
	<path fill="#FFFFFF" d="M56.7,335.7H45.9c0,2.1,1.1,3.2,3.2,3.2c1.1,0,1.9-0.4,2.4-1.3h4.9c-0.4,1.7-1.4,2.9-2.7,3.7
		c-1.3,0.8-2.9,1.2-4.6,1.2c-4.8,0-8.3-2.7-8.3-7.6c0-4.8,3.3-7.7,8-7.7c5,0,7.9,3.1,7.9,8C56.7,335.2,56.7,335.7,56.7,335.7z
		 M51.9,332.7c-0.3-1.4-1.5-2.3-2.9-2.3c-1.5,0-2.7,0.8-3,2.3H51.9z"/>
	<path fill="#FFFFFF" d="M68.5,331.3c-0.8-0.4-1.9-0.7-2.7-0.7c-0.6,0-1.6,0.3-1.6,1c0,1,1.6,1.1,2.3,1.3c2.4,0.5,4.2,1.6,4.2,4.3
		c0,3.8-3.4,5.3-6.8,5.3c-2,0-4.1-0.6-5.8-1.7l1.8-3.6c1,0.7,2.8,1.5,4,1.5c0.6,0,1.6-0.3,1.6-1.1c0-1.1-1.6-1.2-3.2-1.6
		c-1.6-0.4-3.2-1.2-3.2-3.8c0-3.5,3.2-5.1,6.3-5.1c1.6,0,3.2,0.3,4.7,0.9L68.5,331.3z"/>
	<path fill="#FFFFFF" d="M84.1,340.4L84.1,340.4c-1,1.4-2.7,2.1-4.4,2.1c-4.3,0-7.3-3.6-7.3-7.7s2.9-7.6,7.2-7.6
		c1.7,0,3.4,0.6,4.5,1.9v-10.3h5.1V342h-5.1C84.1,342,84.1,340.4,84.1,340.4z M77.8,334.8c0,1.8,1.2,3.2,3.3,3.2s3.3-1.4,3.3-3.2
		c0-1.8-1.2-3.2-3.3-3.2S77.8,333.1,77.8,334.8z"/>
	<path fill="#FFFFFF" d="M107.2,335.7H96.5c0,2.1,1.1,3.2,3.2,3.2c1.1,0,1.9-0.4,2.4-1.3h4.9c-0.4,1.7-1.4,2.9-2.7,3.7
		c-1.3,0.8-2.9,1.2-4.6,1.2c-4.8,0-8.3-2.7-8.3-7.6c0-4.8,3.3-7.7,8-7.7c5,0,7.9,3.1,7.9,8v0.5L107.2,335.7L107.2,335.7z
		 M102.5,332.7c-0.3-1.4-1.5-2.3-2.9-2.3c-1.5,0-2.7,0.8-3,2.3H102.5z"/>
	<path fill="#FFFFFF" d="M124.7,342h-5.1v-10.2h-1.7v-4.2h1.7v-4.3h5.1v4.3h2.9v4.2h-2.9V342z"/>
	<path fill="#FFFFFF" d="M134.2,327.6v7.7c0,1.8,0.4,3.1,2.5,3.1s2.5-1.3,2.5-3.1v-7.7h5.1v8.7c0,4.7-3.3,6.2-7.6,6.2
		s-7.6-1.5-7.6-6.2v-8.7H134.2z"/>
</g>
<g enable-background="new    ">
	<path fill="#FFFFFF" d="M46.8,365.9c-0.8-0.6-1.7-1-2.6-1c-2,0-3.5,1.5-3.5,3.5c0,2.1,1.5,3.5,3.6,3.5c0.9,0,1.9-0.4,2.5-1v4.3
		c-1.1,0.6-2.4,0.8-3.6,0.8c-4.3,0-7.8-3.2-7.8-7.5c0-4.6,3.5-7.8,8-7.8c1.2,0,2.4,0.3,3.4,0.8C46.8,361.5,46.8,365.9,46.8,365.9z"
		/>
	<path fill="#FFFFFF" d="M64.7,369.3H54c0,2.1,1.1,3.2,3.2,3.2c1.1,0,1.9-0.4,2.4-1.3h4.9c-0.4,1.7-1.4,2.9-2.7,3.7
		c-1.3,0.8-2.9,1.2-4.6,1.2c-4.8,0-8.3-2.7-8.3-7.6c0-4.8,3.3-7.7,8-7.7c5,0,7.9,3.1,7.9,8v0.5L64.7,369.3L64.7,369.3z M60,366.3
		c-0.3-1.4-1.5-2.3-2.9-2.3c-1.5,0-2.7,0.8-3,2.3H60z"/>
	<path fill="#FFFFFF" d="M72.1,375.6H67v-23.2h5.1V375.6z"/>
	<path fill="#FFFFFF" d="M80.5,361.2v7.7c0,1.8,0.4,3.1,2.5,3.1s2.5-1.3,2.5-3.1v-7.7h5.1v8.7c0,4.7-3.3,6.2-7.6,6.2
		c-4.3,0-7.6-1.5-7.6-6.2v-8.7H80.5z"/>
	<path fill="#FFFFFF" d="M99,375.6h-5.1v-23.2H99V375.6z"/>
	<path fill="#FFFFFF" d="M118.1,375.6H113V374h-0.1c-0.9,1.4-2.7,2.1-4.3,2.1c-4.3,0-7.3-3.6-7.3-7.7s2.9-7.6,7.2-7.6
		c1.7,0,3.4,0.6,4.5,1.9v-1.4h5.1C118.1,361.3,118.1,375.6,118.1,375.6z M106.6,368.4c0,1.8,1.2,3.2,3.3,3.2s3.3-1.4,3.3-3.2
		c0-1.8-1.2-3.2-3.3-3.2S106.6,366.7,106.6,368.4z"/>
	<path fill="#FFFFFF" d="M126.6,363.6L126.6,363.6c1-1.8,2.7-2.5,4.7-2.5h1v4.9c-0.7-0.4-1.4-0.5-2.2-0.5c-2.8,0-3.5,1.9-3.5,4.3
		v5.8h-5.1v-14.4h5.1C126.6,361.2,126.6,363.6,126.6,363.6z"/>
</g>
</svg>
