<?xml version="1.0" encoding="utf-8"?>
<!-- Generator: Adobe Illustrator 18.1.1, SVG Export Plug-In . SVG Version: 6.00 Build 0)  -->
<svg version="1.1" id="Layer_1" xmlns="http://www.w3.org/2000/svg" xmlns:xlink="http://www.w3.org/1999/xlink" x="0px" y="0px"
	 viewBox="0 0 160 600" enable-background="new 0 0 160 600" xml:space="preserve">
<g id="Layer_1_1_" display="none">
	<g display="inline" enable-background="new    ">
		<path fill="#FFFFFF" d="M17.1,222.6c1.5-0.2,3.2-0.4,5.2-0.4c3.5,0,6,0.8,7.6,2.4c1.7,1.5,2.7,3.7,2.7,6.8s-1,5.6-2.7,7.3
			c-1.8,1.8-4.7,2.7-8.3,2.7c-1.7,0-3.2-0.1-4.4-0.2L17.1,222.6L17.1,222.6z M19.5,239.3c0.6,0.1,1.5,0.1,2.5,0.1c5.2,0,8-2.9,8-8
			c0-4.5-2.5-7.3-7.6-7.3c-1.3,0-2.2,0.1-2.9,0.3V239.3z"/>
		<path fill="#FFFFFF" d="M37.1,234.9c0.1,3.3,2.2,4.7,4.6,4.7c1.8,0,2.8-0.3,3.8-0.7l0.4,1.8c-0.9,0.4-2.4,0.8-4.5,0.8
			c-4.2,0-6.7-2.7-6.7-6.8s2.4-7.3,6.4-7.3c4.4,0,5.6,3.9,5.6,6.4c0,0.5-0.1,0.9-0.1,1.1H37.1z M44.3,233.1c0-1.6-0.6-4-3.4-4
			c-2.5,0-3.6,2.3-3.8,4H44.3z"/>
		<path fill="#FFFFFF" d="M49.8,232.1c0-1.7-0.1-3.1-0.1-4.4h2.2L52,230l0,0c1-1.7,2.6-2.6,4.8-2.6c3.3,0,5.7,2.8,5.7,6.9
			c0,4.9-3,7.3-6.2,7.3c-1.8,0-3.4-0.8-4.2-2.1H52v7.4h-2.4v-14.8L49.8,232.1L49.8,232.1z M52.2,235.7c0,0.4,0.1,0.7,0.1,1
			c0.4,1.7,1.9,2.9,3.7,2.9c2.6,0,4.1-2.1,4.1-5.2c0-2.7-1.4-5-4-5c-1.7,0-3.2,1.2-3.7,3.1c-0.1,0.3-0.2,0.7-0.2,1
			C52.2,233.5,52.2,235.7,52.2,235.7z"/>
		<path fill="#FFFFFF" d="M77.9,234.3c0,5-3.5,7.2-6.7,7.2c-3.7,0-6.5-2.7-6.5-7c0-4.5,3-7.2,6.7-7.2
			C75.3,227.3,77.9,230.2,77.9,234.3z M67.2,234.5c0,3,1.7,5.2,4.1,5.2s4.1-2.2,4.1-5.3c0-2.3-1.1-5.2-4.1-5.2
			S67.2,231.9,67.2,234.5z"/>
		<path fill="#FFFFFF" d="M80.7,238.7c0.7,0.5,2,1,3.2,1c1.8,0,2.6-0.9,2.6-2c0-1.2-0.7-1.8-2.5-2.5c-2.4-0.9-3.6-2.2-3.6-3.8
			c0-2.2,1.8-4,4.7-4c1.4,0,2.6,0.4,3.3,0.8l-0.6,1.8c-0.5-0.3-1.5-0.8-2.8-0.8c-1.5,0-2.3,0.8-2.3,1.8c0,1.1,0.8,1.6,2.6,2.3
			c2.4,0.9,3.6,2.1,3.6,4.1c0,2.4-1.8,4.1-5.1,4.1c-1.5,0-2.9-0.4-3.8-0.9L80.7,238.7z"/>
		<path fill="#FFFFFF" d="M94.9,223.8c0,0.8-0.6,1.5-1.6,1.5c-0.9,0-1.5-0.7-1.5-1.5c0-0.9,0.6-1.5,1.5-1.5
			C94.3,222.3,94.9,223,94.9,223.8z M92.1,241.2v-13.6h2.5v13.6H92.1z"/>
		<path fill="#FFFFFF" d="M101.7,223.8v3.9h3.5v1.9h-3.5v7.3c0,1.7,0.5,2.6,1.8,2.6c0.6,0,1.1-0.1,1.4-0.2l0.1,1.8
			c-0.5,0.2-1.2,0.3-2.2,0.3c-1.1,0-2.1-0.4-2.7-1c-0.7-0.7-1-1.9-1-3.5v-7.4H97v-1.9h2.1v-3.2L101.7,223.8z"/>
		<path fill="#FFFFFF" d="M115.5,241.2l-0.2-1.7h-0.1c-0.8,1.1-2.2,2-4.1,2c-2.7,0-4.1-1.9-4.1-3.9c0-3.3,2.9-5.1,8.1-5v-0.3
			c0-1.1-0.3-3.1-3.1-3.1c-1.3,0-2.6,0.4-3.5,1l-0.6-1.6c1.1-0.7,2.7-1.2,4.5-1.2c4.1,0,5.2,2.8,5.2,5.5v5.1c0,1.2,0.1,2.3,0.2,3.2
			H115.5z M115.1,234.3c-2.7-0.1-5.7,0.4-5.7,3.1c0,1.6,1.1,2.4,2.3,2.4c1.8,0,2.9-1.1,3.3-2.3c0.1-0.3,0.1-0.5,0.1-0.8
			C115.1,236.7,115.1,234.3,115.1,234.3z"/>
	</g>
	<g display="inline" enable-background="new    ">
		<path fill="#FFFFFF" d="M67,257.4v3.9h3.5v1.9H67v7.3c0,1.7,0.5,2.6,1.8,2.6c0.6,0,1.1-0.1,1.4-0.2l0.1,1.8
			c-0.5,0.2-1.2,0.3-2.2,0.3c-1.1,0-2.1-0.4-2.7-1c-0.7-0.7-1-1.9-1-3.5v-7.4h-2.1v-1.9h2.1V258L67,257.4z"/>
		<path fill="#FFFFFF" d="M84.7,271.1c0,1.4,0,2.6,0.1,3.7h-2.2l-0.1-2.2h-0.1c-0.6,1.1-2.1,2.5-4.5,2.5c-2.1,0-4.7-1.2-4.7-5.9
			v-7.9h2.5v7.5c0,2.6,0.8,4.3,3,4.3c1.7,0,2.8-1.1,3.2-2.2c0.1-0.4,0.2-0.8,0.2-1.3v-8.3h2.5L84.7,271.1L84.7,271.1z"/>
		<path fill="#FFFFFF" d="M88.4,272.3c0.7,0.5,2,1,3.2,1c1.8,0,2.6-0.9,2.6-2c0-1.2-0.7-1.8-2.5-2.5c-2.4-0.9-3.6-2.2-3.6-3.8
			c0-2.2,1.8-4,4.7-4c1.4,0,2.6,0.4,3.3,0.8l-0.6,1.8c-0.5-0.3-1.5-0.8-2.8-0.8c-1.5,0-2.3,0.8-2.3,1.8c0,1.1,0.8,1.6,2.6,2.3
			c2.4,0.9,3.6,2.1,3.6,4.1c0,2.4-1.8,4.1-5.1,4.1c-1.5,0-2.9-0.4-3.8-0.9L88.4,272.3z"/>
	</g>
	<g display="inline" enable-background="new    ">
		<path fill="#FFFFFF" d="M36.2,307.9c-0.6,0.3-2.1,0.8-3.9,0.8c-4.1,0-6.7-2.8-6.7-6.9c0-4.2,2.9-7.2,7.3-7.2
			c1.5,0,2.7,0.4,3.4,0.7l-0.6,1.9c-0.6-0.3-1.5-0.6-2.9-0.6c-3.1,0-4.8,2.3-4.8,5.1c0,3.1,2,5.1,4.7,5.1c1.4,0,2.3-0.4,3-0.7
			L36.2,307.9z"/>
		<path fill="#FFFFFF" d="M39.1,288.5h2.5v8.5h0.1c0.4-0.7,1-1.3,1.8-1.7c0.7-0.4,1.6-0.7,2.5-0.7c1.8,0,4.7,1.1,4.7,5.8v8.1h-2.5
			v-7.8c0-2.2-0.8-4-3.1-4c-1.6,0-2.9,1.1-3.3,2.5c-0.1,0.3-0.2,0.7-0.2,1.2v8.2h-2.5V288.5z"/>
		<path fill="#FFFFFF" d="M56,302.1c0.1,3.3,2.2,4.7,4.6,4.7c1.8,0,2.8-0.3,3.8-0.7l0.4,1.8c-0.9,0.4-2.4,0.8-4.5,0.8
			c-4.2,0-6.7-2.7-6.7-6.8c0-4.1,2.4-7.3,6.4-7.3c4.4,0,5.6,3.9,5.6,6.4c0,0.5-0.1,0.9-0.1,1.1H56z M63.2,300.3c0-1.6-0.6-4-3.4-4
			c-2.5,0-3.6,2.3-3.8,4H63.2z"/>
		<path fill="#FFFFFF" d="M77.9,306.3L77.9,306.3c-0.8,1.3-2.3,2.4-4.5,2.4c-3.2,0-5.7-2.7-5.7-6.9c0-5.1,3.3-7.3,6.1-7.3
			c2.1,0,3.5,1,4.2,2.4h0.1l0.1-2h2.3c-0.1,1.1-0.1,2.3-0.1,3.7V314h-2.5V306.3z M77.9,300.3c0-0.3,0-0.7-0.1-1
			c-0.4-1.5-1.7-2.8-3.5-2.8c-2.5,0-4.1,2.2-4.1,5.2c0,2.7,1.3,5,4,5c1.6,0,3-1,3.5-2.7c0.1-0.3,0.2-0.8,0.2-1.2V300.3z"/>
		<path fill="#FFFFFF" d="M95.8,304.7c0,1.4,0,2.6,0.1,3.7h-2.2l-0.1-2.2h-0.1c-0.6,1.1-2.1,2.5-4.5,2.5c-2.1,0-4.7-1.2-4.7-5.9
			v-7.9h2.5v7.5c0,2.6,0.8,4.3,3,4.3c1.7,0,2.8-1.1,3.2-2.2c0.1-0.4,0.2-0.8,0.2-1.3v-8.3h2.5L95.8,304.7L95.8,304.7z"/>
		<path fill="#FFFFFF" d="M101.2,302.1c0.1,3.3,2.2,4.7,4.6,4.7c1.8,0,2.8-0.3,3.8-0.7l0.4,1.8c-0.9,0.4-2.4,0.8-4.5,0.8
			c-4.2,0-6.7-2.7-6.7-6.8c0-4.1,2.4-7.3,6.4-7.3c4.4,0,5.6,3.9,5.6,6.4c0,0.5-0.1,0.9-0.1,1.1H101.2z M108.5,300.3
			c0-1.6-0.6-4-3.4-4c-2.5,0-3.6,2.3-3.8,4H108.5z"/>
		<path fill="#FFFFFF" d="M113.6,305.9c0.7,0.5,2,1,3.2,1c1.8,0,2.6-0.9,2.6-2c0-1.2-0.7-1.8-2.5-2.5c-2.4-0.9-3.6-2.2-3.6-3.8
			c0-2.2,1.8-4,4.7-4c1.4,0,2.6,0.4,3.3,0.8l-0.6,1.8c-0.5-0.3-1.5-0.8-2.8-0.8c-1.5,0-2.3,0.8-2.3,1.8c0,1.1,0.8,1.6,2.6,2.3
			c2.4,0.9,3.6,2.1,3.6,4.1c0,2.4-1.8,4.1-5.1,4.1c-1.5,0-2.9-0.4-3.8-0.9L113.6,305.9z"/>
	</g>
	<g display="inline" enable-background="new    ">
		<path fill="#FFFFFF" d="M34.9,322.1v16.4c0,1.2,0,2.6,0.1,3.5h-2.2l-0.1-2.4h-0.1c-0.8,1.5-2.4,2.7-4.6,2.7
			c-3.3,0-5.8-2.8-5.8-6.9c0-4.5,2.8-7.3,6.1-7.3c2.1,0,3.5,1,4.1,2.1h0.1v-8.1L34.9,322.1L34.9,322.1z M32.4,334c0-0.3,0-0.7-0.1-1
			c-0.4-1.6-1.7-2.9-3.6-2.9c-2.5,0-4.1,2.2-4.1,5.2c0,2.7,1.3,5,4,5c1.7,0,3.2-1.1,3.6-2.9c0.1-0.3,0.1-0.7,0.1-1.1V334H32.4z"/>
		<path fill="#FFFFFF" d="M40.3,335.7c0.1,3.3,2.2,4.7,4.6,4.7c1.8,0,2.8-0.3,3.8-0.7l0.4,1.8c-0.9,0.4-2.4,0.8-4.5,0.8
			c-4.2,0-6.7-2.7-6.7-6.8s2.4-7.3,6.4-7.3c4.4,0,5.6,3.9,5.6,6.4c0,0.5-0.1,0.9-0.1,1.1H40.3z M47.6,333.9c0-1.6-0.6-4-3.4-4
			c-2.5,0-3.6,2.3-3.8,4H47.6z"/>
		<path fill="#FFFFFF" d="M52.7,339.5c0.7,0.5,2,1,3.2,1c1.8,0,2.6-0.9,2.6-2c0-1.2-0.7-1.8-2.5-2.5c-2.4-0.9-3.6-2.2-3.6-3.8
			c0-2.2,1.8-4,4.7-4c1.4,0,2.6,0.4,3.3,0.8l-0.6,1.8c-0.5-0.3-1.5-0.8-2.8-0.8c-1.5,0-2.3,0.8-2.3,1.8c0,1.1,0.8,1.6,2.6,2.3
			c2.4,0.9,3.6,2.1,3.6,4.1c0,2.4-1.8,4.1-5.1,4.1c-1.5,0-2.9-0.4-3.8-0.9L52.7,339.5z"/>
		<path fill="#FFFFFF" d="M75.8,322.1v16.4c0,1.2,0,2.6,0.1,3.5h-2.2l-0.1-2.4h-0.1c-0.8,1.5-2.4,2.7-4.6,2.7
			c-3.3,0-5.8-2.8-5.8-6.9c0-4.5,2.8-7.3,6.1-7.3c2.1,0,3.5,1,4.1,2.1h0.1v-8.1L75.8,322.1L75.8,322.1z M73.3,334c0-0.3,0-0.7-0.1-1
			c-0.4-1.6-1.7-2.9-3.6-2.9c-2.5,0-4.1,2.2-4.1,5.2c0,2.7,1.3,5,4,5c1.7,0,3.2-1.1,3.6-2.9c0.1-0.3,0.1-0.7,0.1-1.1L73.3,334
			L73.3,334z"/>
		<path fill="#FFFFFF" d="M81.2,335.7c0.1,3.3,2.2,4.7,4.6,4.7c1.8,0,2.8-0.3,3.8-0.7l0.4,1.8c-0.9,0.4-2.4,0.8-4.5,0.8
			c-4.2,0-6.7-2.7-6.7-6.8s2.4-7.3,6.4-7.3c4.4,0,5.6,3.9,5.6,6.4c0,0.5-0.1,0.9-0.1,1.1H81.2z M88.5,333.9c0-1.6-0.6-4-3.4-4
			c-2.5,0-3.6,2.3-3.8,4H88.5z"/>
		<path fill="#FFFFFF" d="M102.8,324.6v3.9h3.5v1.9h-3.5v7.3c0,1.7,0.5,2.6,1.8,2.6c0.6,0,1.1-0.1,1.4-0.2l0.1,1.8
			c-0.5,0.2-1.2,0.3-2.2,0.3c-1.1,0-2.1-0.4-2.7-1c-0.7-0.7-1-1.9-1-3.5v-7.4h-2.1v-1.9h2.1v-3.2L102.8,324.6z"/>
		<path fill="#FFFFFF" d="M120.4,338.3c0,1.4,0,2.6,0.1,3.7h-2.2l-0.1-2.2h-0.1c-0.6,1.1-2.1,2.5-4.5,2.5c-2.1,0-4.7-1.2-4.7-5.9
			v-7.9h2.5v7.5c0,2.6,0.8,4.3,3,4.3c1.7,0,2.8-1.1,3.2-2.2c0.1-0.4,0.2-0.8,0.2-1.3v-8.3h2.5L120.4,338.3L120.4,338.3z"/>
	</g>
	<g display="inline" enable-background="new    ">
		<path fill="#FFFFFF" d="M46.4,375.1c-0.6,0.3-2.1,0.8-3.9,0.8c-4.1,0-6.7-2.8-6.7-6.9c0-4.2,2.9-7.2,7.3-7.2
			c1.5,0,2.7,0.4,3.4,0.7l-0.6,1.9c-0.6-0.3-1.5-0.6-2.9-0.6c-3.1,0-4.8,2.3-4.8,5.1c0,3.1,2,5.1,4.7,5.1c1.4,0,2.3-0.4,3-0.7
			L46.4,375.1z"/>
		<path fill="#FFFFFF" d="M50.5,369.3c0.1,3.3,2.2,4.7,4.6,4.7c1.8,0,2.8-0.3,3.8-0.7l0.4,1.8c-0.9,0.4-2.4,0.8-4.5,0.8
			c-4.2,0-6.7-2.7-6.7-6.8s2.4-7.3,6.4-7.3c4.4,0,5.6,3.9,5.6,6.4c0,0.5-0.1,0.9-0.1,1.1H50.5z M57.7,367.5c0-1.6-0.6-4-3.4-4
			c-2.5,0-3.6,2.3-3.8,4H57.7z"/>
		<path fill="#FFFFFF" d="M63.2,355.7h2.5v19.9h-2.5C63.2,375.6,63.2,355.7,63.2,355.7z"/>
		<path fill="#FFFFFF" d="M81.1,371.9c0,1.4,0,2.6,0.1,3.7H79l-0.1-2.2h-0.1c-0.6,1.1-2.1,2.5-4.5,2.5c-2.1,0-4.7-1.2-4.7-5.9v-8
			h2.5v7.5c0,2.6,0.8,4.3,3,4.3c1.7,0,2.8-1.1,3.2-2.2c0.1-0.4,0.2-0.8,0.2-1.3V362H81L81.1,371.9L81.1,371.9z"/>
		<path fill="#FFFFFF" d="M85.2,355.7h2.5v19.9h-2.5V355.7z"/>
		<path fill="#FFFFFF" d="M99.3,375.6l-0.2-1.7H99c-0.8,1.1-2.2,2-4.1,2c-2.7,0-4.1-1.9-4.1-3.9c0-3.3,2.9-5.1,8.1-5v-0.3
			c0-1.1-0.3-3.1-3.1-3.1c-1.3,0-2.6,0.4-3.5,1l-0.6-1.6c1.1-0.7,2.7-1.2,4.5-1.2c4.1,0,5.2,2.8,5.2,5.5v5.1c0,1.2,0.1,2.3,0.2,3.2
			H99.3z M99,368.7c-2.7-0.1-5.7,0.4-5.7,3.1c0,1.6,1.1,2.4,2.3,2.4c1.8,0,2.9-1.1,3.3-2.3c0.1-0.3,0.1-0.5,0.1-0.8
			C99,371.1,99,368.7,99,368.7z"/>
		<path fill="#FFFFFF" d="M105.3,366.3c0-1.6,0-3-0.1-4.2h2.2l0.1,2.7h0.1c0.6-1.8,2.1-3,3.8-3c0.3,0,0.5,0,0.7,0.1v2.3
			c-0.3-0.1-0.5-0.1-0.8-0.1c-1.7,0-3,1.3-3.3,3.2c-0.1,0.3-0.1,0.7-0.1,1.1v7.2h-2.4v-9.3L105.3,366.3L105.3,366.3z"/>
	</g>
</g>
<g id="Layer_1_copy">
	<g>
		<path fill="#FFFFFF" d="M70.9,264.1c-0.8-0.4-1.9-0.7-2.7-0.7c-0.6,0-1.6,0.3-1.6,1c0,1,1.6,1.1,2.3,1.3c2.4,0.5,4.2,1.6,4.2,4.3
			c0,3.8-3.4,5.3-6.8,5.3c-2,0-4.1-0.6-5.8-1.7l1.8-3.6c1,0.7,2.8,1.5,4,1.5c0.6,0,1.6-0.3,1.6-1.1c0-1.1-1.6-1.2-3.2-1.6
			s-3.2-1.2-3.2-3.8c0-3.5,3.2-5.1,6.3-5.1c1.6,0,3.2,0.3,4.7,0.9L70.9,264.1z"/>
		<path fill="#FFFFFF" d="M81.2,254.9c0,1.6-1.3,2.9-2.9,2.9s-2.9-1.3-2.9-2.9s1.3-2.9,2.9-2.9S81.2,253.4,81.2,254.9z M80.9,274.8
			h-5.1v-14.4h5.1V274.8z"/>
		<path fill="#FFFFFF" d="M89.3,262.3L89.3,262.3c1.2-1.7,2.7-2.3,4.6-2.3c3.9,0,5.4,2.4,5.4,6v8.9h-5.1v-7c0-1.4,0.2-3.8-2.3-3.8
			c-2.1,0-2.7,1.5-2.7,3.3v7.4h-5.1v-14.4h5.1L89.3,262.3L89.3,262.3z"/>
		<path fill="#FFFFFF" d="M50,308.4h-5.1v-10.2h-1.7V294h1.7v-4.3H50v4.3h2.9v4.2H50V308.4z"/>
		<path fill="#FFFFFF" d="M69.2,302.1H58.5c0,2.1,1.1,3.2,3.2,3.2c1.1,0,1.9-0.4,2.4-1.3H69c-0.4,1.7-1.4,2.9-2.7,3.7
			c-1.3,0.8-2.9,1.2-4.6,1.2c-4.8,0-8.3-2.7-8.3-7.6c0-4.8,3.3-7.7,8-7.7c5,0,7.9,3.1,7.9,8v0.5L69.2,302.1L69.2,302.1z M64.5,299.1
			c-0.3-1.4-1.5-2.3-2.9-2.3c-1.5,0-2.7,0.8-3,2.3H64.5z"/>
		<path fill="#FFFFFF" d="M76.6,295.9L76.6,295.9c1.2-1.7,2.7-2.3,4.6-2.3c3.9,0,5.4,2.4,5.4,6v8.9h-5.1v-7c0-1.4,0.2-3.8-2.3-3.8
			c-2.1,0-2.7,1.5-2.7,3.3v7.4h-5.1V294h5.1L76.6,295.9L76.6,295.9z"/>
		<path fill="#FFFFFF" d="M104.7,302.1H94c0,2.1,1.1,3.2,3.2,3.2c1.1,0,1.9-0.4,2.4-1.3h4.9c-0.4,1.7-1.4,2.9-2.7,3.7
			c-1.3,0.8-2.9,1.2-4.6,1.2c-4.8,0-8.3-2.7-8.3-7.6c0-4.8,3.3-7.7,8-7.7c5,0,7.9,3.1,7.9,8v0.5L104.7,302.1L104.7,302.1z
			 M100,299.1c-0.3-1.4-1.5-2.3-2.9-2.3c-1.5,0-2.7,0.8-3,2.3H100z"/>
		<path fill="#FFFFFF" d="M112.1,296.4L112.1,296.4c1-1.8,2.7-2.5,4.7-2.5h1v4.9c-0.7-0.4-1.4-0.5-2.2-0.5c-2.8,0-3.5,1.9-3.5,4.3
			v5.8H107V294h5.1V296.4z"/>
		<path fill="#FFFFFF" d="M36.9,349.2h-5.1v-8.5c-1.1,1.3-2.8,1.8-4.5,1.8c-4.3,0-7.2-3.5-7.2-7.6s3-7.7,7.3-7.7
			c1.7,0,3.4,0.7,4.3,2.1h0.1v-1.6h5.1V349.2z M25.4,334.8c0,1.8,1.2,3.2,3.3,3.2s3.3-1.4,3.3-3.2c0-1.8-1.2-3.2-3.3-3.2
			C26.7,331.6,25.4,333.1,25.4,334.8z"/>
		<path fill="#FFFFFF" d="M45.1,327.6v7.7c0,1.8,0.4,3.1,2.5,3.1s2.5-1.3,2.5-3.1v-7.7h5.1v8.7c0,4.7-3.3,6.2-7.6,6.2
			S40,341,40,336.3v-8.7L45.1,327.6L45.1,327.6z"/>
		<path fill="#FFFFFF" d="M73.2,335.7H62.5c0,2.1,1.1,3.2,3.2,3.2c1.1,0,1.9-0.4,2.4-1.3H73c-0.4,1.7-1.4,2.9-2.7,3.7
			c-1.3,0.8-2.9,1.2-4.6,1.2c-4.8,0-8.3-2.7-8.3-7.6c0-4.8,3.3-7.7,8-7.7c5,0,7.9,3.1,7.9,8v0.5L73.2,335.7L73.2,335.7z M68.5,332.7
			c-0.3-1.4-1.5-2.3-2.9-2.3c-1.5,0-2.7,0.8-3,2.3H68.5z"/>
		<path fill="#FFFFFF" d="M90.4,322.1c0,1.6-1.3,2.9-2.9,2.9s-2.9-1.3-2.9-2.9s1.3-2.9,2.9-2.9C89.1,319.3,90.4,320.6,90.4,322.1z
			 M90.1,342H85v-14.4h5.1V342z"/>
		<path fill="#FFFFFF" d="M98.5,330L98.5,330c1-1.8,2.7-2.5,4.7-2.5h1v4.9c-0.7-0.4-1.4-0.5-2.2-0.5c-2.8,0-3.5,1.9-3.5,4.3v5.8
			h-5.1v-14.4h5.1V330z"/>
		<path fill="#FFFFFF" d="M131.3,342h-5.1v-1.6h-0.1c-0.9,1.4-2.7,2.1-4.3,2.1c-4.3,0-7.3-3.6-7.3-7.7s2.9-7.6,7.2-7.6
			c1.7,0,3.4,0.6,4.5,1.9v-1.4h5.1V342z M119.8,334.8c0,1.8,1.2,3.2,3.3,3.2c2.1,0,3.3-1.4,3.3-3.2c0-1.8-1.2-3.2-3.3-3.2
			C121,331.6,119.8,333.1,119.8,334.8z"/>
		<path fill="#FFFFFF" d="M139.7,342h-5.1v-23.2h5.1V342z"/>
		<path fill="#FFFFFF" d="M31.8,352.4h5.1v10.3c1.1-1.3,2.8-1.9,4.5-1.9c4.3,0,7.2,3.5,7.2,7.6s-3,7.7-7.3,7.7
			c-1.7,0-3.4-0.6-4.3-2.1h-0.1v1.6h-5.1C31.8,375.6,31.8,352.4,31.8,352.4z M36.7,368.4c0,1.8,1.2,3.2,3.3,3.2s3.3-1.4,3.3-3.2
			c0-1.8-1.2-3.2-3.3-3.2C37.9,365.2,36.7,366.7,36.7,368.4z"/>
		<path fill="#FFFFFF" d="M66.7,375.6h-5.1V374h-0.1c-0.9,1.4-2.7,2.1-4.3,2.1c-4.3,0-7.3-3.6-7.3-7.7s2.9-7.6,7.2-7.6
			c1.7,0,3.4,0.6,4.5,1.9v-1.4h5.1C66.7,361.3,66.7,375.6,66.7,375.6z M55.2,368.4c0,1.8,1.2,3.2,3.3,3.2s3.3-1.4,3.3-3.2
			c0-1.8-1.2-3.2-3.3-3.2C56.4,365.2,55.2,366.7,55.2,368.4z"/>
		<path fill="#FFFFFF" d="M75.2,363.1L75.2,363.1c1.2-1.7,2.7-2.3,4.6-2.3c3.9,0,5.4,2.4,5.4,6v8.9h-5.1v-7c0-1.4,0.2-3.8-2.3-3.8
			c-2.1,0-2.7,1.5-2.7,3.3v7.4H70v-14.4h5.1L75.2,363.1L75.2,363.1z"/>
		<path fill="#FFFFFF" d="M98.9,365.9c-0.8-0.6-1.7-1-2.6-1c-2,0-3.5,1.5-3.5,3.5c0,2.1,1.5,3.5,3.6,3.5c0.9,0,1.9-0.4,2.5-1v4.3
			c-1.1,0.6-2.4,0.8-3.6,0.8c-4.3,0-7.8-3.2-7.8-7.5c0-4.6,3.5-7.8,8-7.8c1.2,0,2.4,0.3,3.4,0.8V365.9z"/>
		<path fill="#FFFFFF" d="M118.2,368.4c0,4.9-4,7.6-8.7,7.6c-4.6,0-8.7-2.7-8.7-7.6s4-7.7,8.7-7.7
			C114.2,360.8,118.2,363.5,118.2,368.4z M106.3,368.4c0,1.8,1.2,3.2,3.3,3.2c2.1,0,3.3-1.4,3.3-3.2c0-1.8-1.2-3.2-3.3-3.2
			C107.5,365.2,106.3,366.7,106.3,368.4z"/>
		<path fill="#FFFFFF" d="M126.9,372.9c0,1.8-1.5,3.3-3.3,3.3s-3.3-1.5-3.3-3.3s1.5-3.3,3.3-3.3S126.9,371.1,126.9,372.9z"/>
	</g>
</g>
</svg>
